<svg version="1.1" id="Layer_1" xmlns="http://www.w3.org/2000/svg" xmlns:xlink="http://www.w3.org/1999/xlink" x="0px" y="0px"
	 width="100%" viewBox="0 0 1280 229" enable-background="new 0 0 1280 229" xml:space="preserve">
<path fill="#010101" opacity="1.000000" stroke="none" 
	d="
M202.000000,1.000005 
	C561.603943,1.000000 921.207825,1.000000 1280.905884,1.000000 
	C1280.905884,77.257187 1280.905884,153.514542 1280.905884,230.000000 
	C921.971985,230.000000 562.943970,230.000000 203.100128,229.725220 
	C203.322723,228.783447 204.284851,227.924088 205.410721,227.477921 
	C227.077667,218.891632 236.876724,194.254990 226.647827,173.400940 
	C220.863632,161.608490 211.122025,154.602173 198.375366,151.761566 
	C198.375366,127.525490 198.375366,103.447746 198.375366,79.445885 
	C220.334488,74.595627 234.023224,54.826633 229.993942,33.760891 
	C227.261444,19.474947 218.991379,9.510486 205.490692,3.892832 
	C204.156830,3.337817 203.155609,1.983397 202.000000,1.000005 
M958.499939,162.832092 
	C965.165161,162.831787 971.843445,163.098007 978.492737,162.772781 
	C990.400513,162.190323 999.192688,156.480911 1003.451721,145.240417 
	C1007.355591,134.937241 1005.034424,125.699593 996.768311,118.455750 
	C998.861694,115.563515 1001.344299,112.986046 1002.838257,109.925941 
	C1010.488098,94.257088 998.575378,74.831123 980.435425,73.940964 
	C967.301697,73.296463 954.115784,73.713852 940.953186,73.661064 
	C938.691895,73.652000 936.430542,73.659782 934.251465,73.659782 
	C934.251465,103.708565 934.251465,133.111359 934.251465,162.832092 
	C942.219666,162.832092 949.859802,162.832092 958.499939,162.832092 
M348.332825,162.791016 
	C354.106171,162.791016 359.879517,162.791016 365.660217,162.791016 
	C365.660217,132.782120 365.660217,103.269165 365.660217,73.867584 
	C359.700714,73.867584 354.085449,73.867584 347.912689,73.867584 
	C347.912689,92.891266 347.912689,111.697815 347.912689,131.833420 
	C346.584137,129.650040 345.990082,128.702972 345.424133,127.739418 
	C335.496552,110.837296 325.604340,93.914154 315.588074,77.064758 
	C314.764832,75.679893 313.160034,73.916176 311.820465,73.828796 
	C306.243256,73.465004 300.628632,73.675758 294.907990,73.675758 
	C294.907990,103.613503 294.907990,133.000168 294.907990,162.595169 
	C300.749420,162.595169 306.327118,162.595169 312.429932,162.595169 
	C312.429932,143.536240 312.429932,124.703186 312.429932,105.870132 
	C320.726318,118.192413 328.044495,130.775696 335.493561,143.281021 
	C339.381104,149.807343 343.499054,156.196457 348.332825,162.791016 
M625.213013,131.688599 
	C627.919800,139.434830 624.191345,144.924225 616.036682,144.971741 
	C603.427795,145.045197 590.818115,144.991089 578.251221,144.991089 
	C578.251221,151.210770 578.251221,156.918045 578.251221,162.859863 
	C580.110535,162.859863 581.594543,162.861206 583.078552,162.859650 
	C594.742676,162.847458 606.417053,163.137100 618.068359,162.744568 
	C632.195435,162.268646 643.517700,151.246201 644.164429,138.012909 
	C644.890137,123.162003 635.526306,111.550575 620.590698,109.691917 
	C613.856323,108.853851 606.958313,109.369194 600.137146,109.178680 
	C594.152039,109.011505 590.969604,105.875038 590.968750,100.325829 
	C590.967896,94.626442 594.475647,91.558678 601.263489,91.533104 
	C612.760559,91.489792 624.257874,91.549026 635.755127,91.540100 
	C637.334106,91.538872 638.913025,91.394035 640.310303,91.324692 
	C640.310303,85.099106 640.310303,79.523911 640.310303,73.655983 
	C628.667419,73.655983 617.359375,73.640923 606.051392,73.666084 
	C603.053955,73.672752 600.044556,73.655952 597.061523,73.902397 
	C584.640625,74.928535 574.170471,85.260628 573.086243,97.446129 
	C571.883728,110.960876 579.882446,123.312363 592.798096,125.900955 
	C600.191284,127.382721 608.039001,126.444519 615.609802,127.263969 
	C618.784180,127.607559 621.771362,129.681305 625.213013,131.688599 
M454.910278,101.396339 
	C441.127777,113.237755 438.424469,134.968826 448.822693,150.263687 
	C453.234772,156.753448 459.447327,160.715271 466.882111,162.724899 
	C479.495880,166.134430 490.319550,162.166946 499.583557,153.931274 
	C503.686676,156.673874 503.934326,163.336288 510.382690,162.743683 
	C510.382690,140.466995 510.382690,118.576630 510.382690,96.571266 
	C503.977020,95.121948 503.711487,102.444580 499.462494,103.689919 
	C484.473114,89.807701 466.871246,91.958817 454.910278,101.396339 
M843.546753,162.142258 
	C856.708069,166.419586 868.013977,162.706696 877.983276,153.893127 
	C886.405273,162.577026 886.405273,162.577026 888.731384,162.221481 
	C888.731384,140.316071 888.731384,118.406487 888.731384,96.455292 
	C882.521484,95.271027 882.129028,101.926430 877.962158,103.783493 
	C866.035706,92.989014 852.454407,90.062500 837.939026,98.259521 
	C824.847656,105.652382 820.070740,117.933334 821.194580,132.447617 
	C822.285828,146.540771 829.080627,156.862152 843.546753,162.142258 
M1190.491333,162.835464 
	C1194.156738,162.834488 1197.828857,162.977737 1201.486328,162.806061 
	C1213.446655,162.244675 1222.257935,152.731094 1221.979370,140.815018 
	C1221.725098,129.929245 1213.019653,122.008217 1201.083008,121.867699 
	C1195.585693,121.802979 1190.086060,121.790009 1184.589233,121.866592 
	C1181.441650,121.910439 1179.175293,120.636513 1179.153931,117.441376 
	C1179.131470,114.090157 1181.713013,113.134033 1184.690796,113.134911 
	C1187.689819,113.135796 1190.688721,113.131523 1193.687744,113.131302 
	C1201.605591,113.130722 1209.523560,113.131104 1217.392578,113.131104 
	C1217.392578,107.163818 1217.392578,101.921219 1217.392578,96.449028 
	C1204.949707,96.449028 1192.793335,95.943359 1180.720215,96.723892 
	C1176.506470,96.996300 1171.787598,99.658333 1168.544434,102.601204 
	C1161.921509,108.610863 1160.401245,116.547279 1163.599487,124.994583 
	C1167.059692,134.133896 1174.270508,138.286041 1183.668091,138.787460 
	C1189.483398,139.097733 1195.335938,138.698044 1201.152954,138.991318 
	C1202.511353,139.059814 1203.793091,140.646973 1205.109985,141.535431 
	C1203.920898,142.921936 1202.906006,144.545380 1201.472656,145.599625 
	C1200.702148,146.166245 1199.213135,145.781357 1198.048340,145.782394 
	C1189.551270,145.789948 1181.054077,145.786499 1172.557007,145.786514 
	C1169.145630,145.786514 1165.734253,145.786514 1162.366699,145.786514 
	C1162.366699,151.828629 1162.366699,157.090286 1162.366699,162.835449 
	C1171.588257,162.835449 1180.541260,162.835449 1190.491333,162.835464 
M717.225769,138.595932 
	C720.173035,126.402908 718.423401,115.093887 710.334961,105.272263 
	C699.401428,91.995918 678.882385,89.896828 664.377197,100.336327 
	C650.235229,110.514412 646.080383,131.987579 655.502991,147.317017 
	C662.771484,159.141785 673.641357,164.971832 687.392578,163.717117 
	C702.433533,162.344742 712.247009,153.689270 717.225769,138.595932 
M425.565369,160.187057 
	C429.808289,156.934647 434.051208,153.682251 438.943848,149.931793 
	C435.859924,147.083664 433.651672,145.295868 431.755859,143.222443 
	C429.867950,141.157700 428.293610,138.806274 426.425415,136.377213 
	C419.624664,145.819244 413.763580,148.461334 406.701050,145.911621 
	C417.206329,133.226303 427.643860,120.622826 438.000153,108.117424 
	C425.676819,92.403435 404.673431,89.143478 389.781372,100.246391 
	C375.992554,110.526779 371.985229,131.373367 380.800903,146.964035 
	C389.458649,162.275406 407.106049,167.734146 425.565369,160.187057 
M1072.318237,152.797043 
	C1079.000610,145.135712 1081.747559,136.204895 1081.194946,126.099533 
	C1080.212280,108.131981 1066.006348,91.752991 1042.928345,93.964996 
	C1025.802368,95.606499 1011.243347,113.439163 1013.193604,131.501450 
	C1014.747498,145.892700 1021.828125,156.739410 1035.664795,161.788452 
	C1049.260986,166.749710 1061.505493,163.524612 1072.318237,152.797043 
M1108.253052,161.404190 
	C1113.952637,162.148712 1119.824951,164.161667 1125.321411,163.413620 
	C1146.740356,160.498611 1159.850464,139.440002 1153.859741,118.632988 
	C1147.441528,96.341339 1125.958984,89.765381 1109.463989,95.810951 
	C1095.375977,100.974312 1087.976807,111.738197 1087.181763,126.510590 
	C1086.332886,142.285675 1093.049561,154.107697 1108.253052,161.404190 
M1245.622925,155.927094 
	C1254.892090,163.595596 1265.819214,163.277039 1277.110596,162.598495 
	C1277.110596,157.002075 1277.110596,151.591812 1277.110596,145.790268 
	C1274.939087,145.790268 1272.977051,145.791901 1271.015015,145.789825 
	C1268.850342,145.787521 1266.681396,145.869797 1264.521973,145.760941 
	C1258.219360,145.443268 1252.795166,141.797028 1252.265503,136.097717 
	C1251.567993,128.592499 1252.094116,120.973557 1252.094116,112.963463 
	C1260.606934,112.963463 1268.838257,112.963463 1277.074951,112.963463 
	C1277.074951,107.245857 1277.074951,101.980293 1277.074951,96.254356 
	C1268.579224,96.254356 1260.338379,96.254356 1251.615234,96.254356 
	C1251.615234,87.236206 1251.615234,78.667847 1251.615234,70.019836 
	C1245.858521,70.019836 1240.599243,70.019836 1234.865479,70.019836 
	C1234.865479,78.823601 1234.865479,87.406143 1234.865479,96.051468 
	C1231.952637,96.206627 1229.512451,96.336609 1226.958008,96.472679 
	C1226.958008,102.151901 1226.958008,107.519241 1226.958008,113.270508 
	C1229.717163,113.270508 1232.142944,113.270508 1234.915649,113.270508 
	C1234.915649,119.449417 1235.134644,125.256821 1234.866821,131.041687 
	C1234.411987,140.863235 1237.930664,148.894272 1245.622925,155.927094 
M776.886780,140.476608 
	C775.803772,139.466415 774.720825,138.456223 773.612183,137.422119 
	C768.210449,145.431000 761.501892,148.470383 754.187805,146.354263 
	C746.466614,144.120377 741.703674,138.202530 741.365417,130.422638 
	C741.019226,122.462967 745.751953,114.203804 752.568115,112.060188 
	C755.598755,111.107101 759.576416,110.383209 762.211792,111.574173 
	C766.735229,113.618416 770.542786,117.246780 774.631287,120.195953 
	C777.919617,117.002602 781.929932,113.108086 785.913696,109.239433 
	C777.300476,96.331253 762.967041,90.824394 748.990662,94.944878 
	C734.656982,99.170692 724.284363,113.770599 724.129272,129.938522 
	C723.989075,144.553711 734.078186,158.135361 748.333801,162.521881 
	C762.237976,166.800262 777.496704,161.518707 785.867554,149.426651 
	C783.048828,146.642532 780.208740,143.837250 776.886780,140.476608 
M902.051514,154.431091 
	C902.051514,157.174805 902.051514,159.918518 902.051514,162.601379 
	C908.102356,162.601379 913.365234,162.601379 918.698730,162.601379 
	C918.698730,131.542831 918.698730,100.728256 918.698730,70.013542 
	C913.056030,70.013542 907.777649,70.013542 902.051514,70.013542 
	C902.051514,97.970924 902.051514,125.708748 902.051514,154.431091 
M524.768982,162.771027 
	C529.872375,162.771027 534.975769,162.771027 540.617737,162.771027 
	C540.617737,151.223175 540.609741,140.112610 540.619995,129.002029 
	C540.630554,117.556236 545.101868,113.152229 556.708984,113.132774 
	C560.486938,113.126434 564.264832,113.131775 568.004150,113.131775 
	C568.004150,107.235924 568.004150,101.850609 568.004150,96.576309 
	C561.646973,96.576309 555.529907,95.768265 549.742554,96.803604 
	C543.956360,97.838737 538.500061,100.717552 532.437866,102.958687 
	C530.052185,101.404541 529.883118,95.239006 524.003967,96.375511 
	C524.003967,118.649963 524.003967,140.420670 524.768982,162.771027 
M811.686218,102.666107 
	C811.686218,100.574951 811.686218,98.483803 811.686218,96.502472 
	C805.503540,96.502472 800.099426,96.502472 794.597534,96.502472 
	C794.597534,118.716949 794.597534,140.583054 794.597534,162.627136 
	C800.320923,162.627136 805.726318,162.627136 811.686218,162.627136 
	C811.686218,142.801270 811.686218,123.215729 811.686218,102.666107 
M814.296265,78.433975 
	C813.523010,70.786812 809.456299,66.766670 802.664673,66.935516 
	C796.838135,67.080383 792.181824,71.509689 791.875916,77.198212 
	C791.528442,83.661400 795.218811,88.373917 801.251282,89.170181 
	C808.163452,90.082573 812.854736,86.506432 814.296265,78.433975 
z"/>
<path fill="#FCFCFC" opacity="1.000000" stroke="none" 
	d="
M201.531464,1.000005 
	C203.155609,1.983397 204.156830,3.337817 205.490692,3.892832 
	C218.991379,9.510486 227.261444,19.474947 229.993942,33.760891 
	C234.023224,54.826633 220.334488,74.595627 198.375366,79.445885 
	C198.375366,103.447746 198.375366,127.525490 198.375366,151.761566 
	C211.122025,154.602173 220.863632,161.608490 226.647827,173.400940 
	C236.876724,194.254990 227.077667,218.891632 205.410721,227.477921 
	C204.284851,227.924088 203.322723,228.783447 202.642181,229.725220 
	C195.645752,230.000000 188.291504,230.000000 180.728348,229.674713 
	C180.002060,228.951172 179.543335,228.396698 178.958832,228.177200 
	C154.253448,218.899475 144.521088,193.982285 156.892838,171.043655 
	C158.380264,168.285797 157.487167,166.969040 155.945557,165.048950 
	C134.274841,138.057724 112.658798,111.022629 91.020660,84.005257 
	C85.341026,76.913673 79.631317,69.846153 73.767441,62.558826 
	C67.129196,71.690979 58.776314,77.289406 48.774536,79.364006 
	C48.774536,103.463158 48.774536,127.177582 48.774536,150.839600 
	C58.825211,152.317337 66.950096,156.197144 73.455811,163.118484 
	C93.132095,184.051865 84.742706,218.043091 57.626686,227.617188 
	C56.598824,227.980103 55.868813,229.186615 55.000000,230.000000 
	C48.645603,230.000000 42.291203,230.000000 35.759689,229.685364 
	C34.761826,228.890335 33.994911,228.249557 33.112350,227.953323 
	C16.592604,222.408340 7.015491,210.711075 5.351147,193.696106 
	C3.783202,177.666702 10.623866,164.743286 24.562435,156.434692 
	C29.686491,153.380295 35.811138,152.004501 41.465862,149.868134 
	C41.465862,127.026085 41.465862,103.663055 41.465862,80.368195 
	C22.343504,79.155663 9.432910,70.216576 2.877618,52.511261 
	C2.638140,51.864449 1.642985,51.497417 1.000000,51.000000 
	C1.000000,44.645603 1.000000,38.291203 1.331174,31.726192 
	C1.895800,31.287689 2.262466,31.099380 2.343614,30.826244 
	C6.615041,16.448969 15.819345,6.963467 30.211109,2.545860 
	C30.595980,2.427722 30.742388,1.532722 31.000000,1.000000 
	C37.354397,1.000000 43.708797,1.000000 50.239265,1.314742 
	C51.551502,2.212464 52.646317,2.901593 53.829971,3.362659 
	C74.916870,11.576557 84.746437,31.976315 78.208054,53.510643 
	C77.728409,55.090336 78.555359,57.645409 79.663170,59.042805 
	C100.839310,85.754501 122.138802,112.368500 143.436707,138.983551 
	C149.827347,146.969635 156.290527,154.897675 162.825226,162.981918 
	C171.042480,154.993195 180.627228,151.429001 191.291428,150.935669 
	C191.291428,127.114029 191.291428,103.725426 191.291428,80.250275 
	C178.496185,79.779297 167.981827,75.072739 160.164780,65.274284 
	C143.353531,44.201836 151.849716,13.635750 177.060455,3.780273 
	C178.513824,3.212119 179.693130,1.942927 181.000000,0.999997 
	C187.687637,1.000000 194.375290,1.000000 201.531464,1.000005 
z"/>
<path fill="#020202" opacity="1.000000" stroke="none" 
	d="
M55.468658,230.000000 
	C55.868813,229.186615 56.598824,227.980103 57.626686,227.617188 
	C84.742706,218.043091 93.132095,184.051865 73.455811,163.118484 
	C66.950096,156.197144 58.825211,152.317337 48.774536,150.839600 
	C48.774536,127.177582 48.774536,103.463158 48.774536,79.364006 
	C58.776314,77.289406 67.129196,71.690979 73.767441,62.558826 
	C79.631317,69.846153 85.341026,76.913673 91.020660,84.005257 
	C112.658798,111.022629 134.274841,138.057724 155.945557,165.048950 
	C157.487167,166.969040 158.380264,168.285797 156.892838,171.043655 
	C144.521088,193.982285 154.253448,218.899475 178.958832,228.177200 
	C179.543335,228.396698 180.002060,228.951172 180.259720,229.674713 
	C138.645767,230.000000 97.291542,230.000000 55.468658,230.000000 
z"/>
<path fill="#020202" opacity="1.000000" stroke="none" 
	d="
M180.531342,0.999997 
	C179.693130,1.942927 178.513824,3.212119 177.060455,3.780273 
	C151.849716,13.635750 143.353531,44.201836 160.164780,65.274284 
	C167.981827,75.072739 178.496185,79.779297 191.291428,80.250275 
	C191.291428,103.725426 191.291428,127.114029 191.291428,150.935669 
	C180.627228,151.429001 171.042480,154.993195 162.825226,162.981918 
	C156.290527,154.897675 149.827347,146.969635 143.436707,138.983551 
	C122.138802,112.368500 100.839310,85.754501 79.663170,59.042805 
	C78.555359,57.645409 77.728409,55.090336 78.208054,53.510643 
	C84.746437,31.976315 74.916870,11.576557 53.829971,3.362659 
	C52.646317,2.901593 51.551502,2.212464 50.707668,1.314742 
	C94.020897,1.000000 137.041794,1.000000 180.531342,0.999997 
z"/>
<path fill="#030303" opacity="1.000000" stroke="none" 
	d="
M1.000000,51.468658 
	C1.642985,51.497417 2.638140,51.864449 2.877618,52.511261 
	C9.432910,70.216576 22.343504,79.155663 41.465862,80.368195 
	C41.465862,103.663055 41.465862,127.026085 41.465862,149.868134 
	C35.811138,152.004501 29.686491,153.380295 24.562435,156.434692 
	C10.623866,164.743286 3.783202,177.666702 5.351147,193.696106 
	C7.015491,210.711075 16.592604,222.408340 33.112350,227.953323 
	C33.994911,228.249557 34.761826,228.890335 35.291290,229.685364 
	C23.689987,230.000000 12.379974,230.000000 1.000000,230.000000 
	C1.000000,170.645782 1.000000,111.291550 1.000000,51.468658 
z"/>
<path fill="#060606" opacity="1.000000" stroke="none" 
	d="
M30.531342,1.000000 
	C30.742388,1.532722 30.595980,2.427722 30.211109,2.545860 
	C15.819345,6.963467 6.615041,16.448969 2.343614,30.826244 
	C2.262466,31.099380 1.895800,31.287689 1.331174,31.257790 
	C1.000000,21.073496 1.000000,11.146992 1.000000,1.000000 
	C10.686449,1.000000 20.374567,1.000000 30.531342,1.000000 
z"/>
<path fill="#FAFAFA" opacity="1.000000" stroke="none" 
	d="
M957.999939,162.832092 
	C949.859802,162.832092 942.219666,162.832092 934.251465,162.832092 
	C934.251465,133.111359 934.251465,103.708565 934.251465,73.659782 
	C936.430542,73.659782 938.691895,73.652000 940.953186,73.661064 
	C954.115784,73.713852 967.301697,73.296463 980.435425,73.940964 
	C998.575378,74.831123 1010.488098,94.257088 1002.838257,109.925941 
	C1001.344299,112.986046 998.861694,115.563515 996.768311,118.455750 
	C1005.034424,125.699593 1007.355591,134.937241 1003.451721,145.240417 
	C999.192688,156.480911 990.400513,162.190323 978.492737,162.772781 
	C971.843445,163.098007 965.165161,162.831787 957.999939,162.832092 
M951.762085,133.554413 
	C951.762085,137.296936 951.762085,141.039459 951.762085,144.998260 
	C960.532837,144.998260 968.652039,144.998718 976.771179,144.997391 
	C977.435608,144.997284 978.104675,145.033997 978.763672,144.970734 
	C983.793762,144.487778 987.105164,141.079071 987.226929,136.285172 
	C987.346436,131.577087 984.453247,127.494667 979.764709,127.301895 
	C970.530212,126.922211 961.269104,127.190041 951.762085,127.190041 
	C951.762085,129.295517 951.762085,130.937485 951.762085,133.554413 
M987.161621,101.276527 
	C986.915161,95.303772 984.859070,92.068794 979.811523,91.846146 
	C970.585938,91.439209 961.329529,91.730370 952.064697,91.730370 
	C952.064697,97.745407 952.064697,103.311966 952.064697,109.197365 
	C961.162292,109.197365 969.959167,109.320724 978.750183,109.145935 
	C983.223694,109.056999 986.232727,106.719917 987.161621,101.276527 
z"/>
<path fill="#FCFCFC" opacity="1.000000" stroke="none" 
	d="
M347.922852,162.719269 
	C343.499054,156.196457 339.381104,149.807343 335.493561,143.281021 
	C328.044495,130.775696 320.726318,118.192413 312.429932,105.870132 
	C312.429932,124.703186 312.429932,143.536240 312.429932,162.595169 
	C306.327118,162.595169 300.749420,162.595169 294.907990,162.595169 
	C294.907990,133.000168 294.907990,103.613503 294.907990,73.675758 
	C300.628632,73.675758 306.243256,73.465004 311.820465,73.828796 
	C313.160034,73.916176 314.764832,75.679893 315.588074,77.064758 
	C325.604340,93.914154 335.496552,110.837296 345.424133,127.739418 
	C345.990082,128.702972 346.584137,129.650040 347.912689,131.833420 
	C347.912689,111.697815 347.912689,92.891266 347.912689,73.867584 
	C354.085449,73.867584 359.700714,73.867584 365.660217,73.867584 
	C365.660217,103.269165 365.660217,132.782120 365.660217,162.791016 
	C359.879517,162.791016 354.106171,162.791016 347.922852,162.719269 
z"/>
<path fill="#F9F9F9" opacity="1.000000" stroke="none" 
	d="
M625.028320,131.328537 
	C621.771362,129.681305 618.784180,127.607559 615.609802,127.263969 
	C608.039001,126.444519 600.191284,127.382721 592.798096,125.900955 
	C579.882446,123.312363 571.883728,110.960876 573.086243,97.446129 
	C574.170471,85.260628 584.640625,74.928535 597.061523,73.902397 
	C600.044556,73.655952 603.053955,73.672752 606.051392,73.666084 
	C617.359375,73.640923 628.667419,73.655983 640.310303,73.655983 
	C640.310303,79.523911 640.310303,85.099106 640.310303,91.324692 
	C638.913025,91.394035 637.334106,91.538872 635.755127,91.540100 
	C624.257874,91.549026 612.760559,91.489792 601.263489,91.533104 
	C594.475647,91.558678 590.967896,94.626442 590.968750,100.325829 
	C590.969604,105.875038 594.152039,109.011505 600.137146,109.178680 
	C606.958313,109.369194 613.856323,108.853851 620.590698,109.691917 
	C635.526306,111.550575 644.890137,123.162003 644.164429,138.012909 
	C643.517700,151.246201 632.195435,162.268646 618.068359,162.744568 
	C606.417053,163.137100 594.742676,162.847458 583.078552,162.859650 
	C581.594543,162.861206 580.110535,162.859863 578.251221,162.859863 
	C578.251221,156.918045 578.251221,151.210770 578.251221,144.991089 
	C590.818115,144.991089 603.427795,145.045197 616.036682,144.971741 
	C624.191345,144.924225 627.919800,139.434830 625.028320,131.328537 
z"/>
<path fill="#F8F8F8" opacity="1.000000" stroke="none" 
	d="
M455.171631,101.147583 
	C466.871246,91.958817 484.473114,89.807701 499.462494,103.689919 
	C503.711487,102.444580 503.977020,95.121948 510.382690,96.571266 
	C510.382690,118.576630 510.382690,140.466995 510.382690,162.743683 
	C503.934326,163.336288 503.686676,156.673874 499.583557,153.931274 
	C490.319550,162.166946 479.495880,166.134430 466.882111,162.724899 
	C459.447327,160.715271 453.234772,156.753448 448.822693,150.263687 
	C438.424469,134.968826 441.127777,113.237755 455.171631,101.147583 
M487.284515,115.145203 
	C480.287628,109.878632 472.931763,109.411659 466.655457,113.835564 
	C460.904266,117.889282 458.402405,126.593445 460.504517,134.467255 
	C462.260559,141.044876 466.330444,145.068527 472.940277,146.572311 
	C479.258148,148.009644 484.342560,145.743362 488.581543,141.214371 
	C495.326080,134.008453 494.996185,124.053764 487.284515,115.145203 
z"/>
<path fill="#FBFBFB" opacity="1.000000" stroke="none" 
	d="
M843.164917,162.030426 
	C829.080627,156.862152 822.285828,146.540771 821.194580,132.447617 
	C820.070740,117.933334 824.847656,105.652382 837.939026,98.259521 
	C852.454407,90.062500 866.035706,92.989014 877.962158,103.783493 
	C882.129028,101.926430 882.521484,95.271027 888.731384,96.455292 
	C888.731384,118.406487 888.731384,140.316071 888.731384,162.221481 
	C886.405273,162.577026 886.405273,162.577026 877.983276,153.893127 
	C868.013977,162.706696 856.708069,166.419586 843.164917,162.030426 
M865.894592,142.450729 
	C867.108337,140.877457 868.523621,139.419830 869.503052,137.712189 
	C876.021973,126.346268 867.929810,111.121048 855.268188,110.817009 
	C847.819397,110.638130 841.785645,114.670364 839.452820,121.386101 
	C836.484131,129.931854 838.611145,138.915359 844.715759,143.615509 
	C850.822754,148.317398 857.891052,148.089249 865.894592,142.450729 
z"/>
<path fill="#F9F9F9" opacity="1.000000" stroke="none" 
	d="
M1189.992676,162.835449 
	C1180.541260,162.835449 1171.588257,162.835449 1162.366699,162.835449 
	C1162.366699,157.090286 1162.366699,151.828629 1162.366699,145.786514 
	C1165.734253,145.786514 1169.145630,145.786514 1172.557007,145.786514 
	C1181.054077,145.786499 1189.551270,145.789948 1198.048340,145.782394 
	C1199.213135,145.781357 1200.702148,146.166245 1201.472656,145.599625 
	C1202.906006,144.545380 1203.920898,142.921936 1205.109985,141.535416 
	C1203.793091,140.646973 1202.511353,139.059814 1201.152954,138.991318 
	C1195.335938,138.698044 1189.483398,139.097733 1183.668091,138.787460 
	C1174.270508,138.286041 1167.059692,134.133896 1163.599487,124.994583 
	C1160.401245,116.547279 1161.921509,108.610863 1168.544434,102.601204 
	C1171.787598,99.658333 1176.506470,96.996300 1180.720215,96.723892 
	C1192.793335,95.943359 1204.949707,96.449028 1217.392578,96.449028 
	C1217.392578,101.921219 1217.392578,107.163818 1217.392578,113.131104 
	C1209.523560,113.131104 1201.605591,113.130722 1193.687744,113.131302 
	C1190.688721,113.131523 1187.689819,113.135796 1184.690796,113.134911 
	C1181.713013,113.134033 1179.131470,114.090157 1179.153931,117.441376 
	C1179.175293,120.636513 1181.441650,121.910439 1184.589233,121.866592 
	C1190.086060,121.790009 1195.585693,121.802979 1201.083008,121.867699 
	C1213.019653,122.008217 1221.725098,129.929245 1221.979370,140.815018 
	C1222.257935,152.731094 1213.446655,162.244675 1201.486328,162.806061 
	C1197.828857,162.977737 1194.156738,162.834488 1189.992676,162.835449 
z"/>
<path fill="#FAFAFA" opacity="1.000000" stroke="none" 
	d="
M717.150146,138.995789 
	C712.247009,153.689270 702.433533,162.344742 687.392578,163.717117 
	C673.641357,164.971832 662.771484,159.141785 655.502991,147.317017 
	C646.080383,131.987579 650.235229,110.514412 664.377197,100.336327 
	C678.882385,89.896828 699.401428,91.995918 710.334961,105.272263 
	C718.423401,115.093887 720.173035,126.402908 717.150146,138.995789 
M672.205627,141.234314 
	C678.997925,147.726593 686.268188,148.801392 693.372681,144.363510 
	C700.140991,140.135635 703.242554,130.829178 700.553589,122.817085 
	C697.786011,114.571304 691.126709,110.154434 682.619934,110.922485 
	C669.219971,112.132332 663.269897,128.453400 672.205627,141.234314 
z"/>
<path fill="#FAFAFA" opacity="1.000000" stroke="none" 
	d="
M425.253845,160.402527 
	C407.106049,167.734146 389.458649,162.275406 380.800903,146.964035 
	C371.985229,131.373367 375.992554,110.526779 389.781372,100.246391 
	C404.673431,89.143478 425.676819,92.403435 438.000153,108.117424 
	C427.643860,120.622826 417.206329,133.226303 406.701050,145.911621 
	C413.763580,148.461334 419.624664,145.819244 426.425415,136.377213 
	C428.293610,138.806274 429.867950,141.157700 431.755859,143.222443 
	C433.651672,145.295868 435.859924,147.083664 438.943848,149.931793 
	C434.051208,153.682251 429.808289,156.934647 425.253845,160.402527 
M407.889252,110.926941 
	C395.571075,113.906044 389.967163,125.452423 395.458038,137.253876 
	C401.893616,128.718002 408.213745,120.335266 415.130768,111.160858 
	C412.250244,111.024277 410.497192,110.941154 407.889252,110.926941 
z"/>
<path fill="#FAFAFA" opacity="1.000000" stroke="none" 
	d="
M1072.081299,153.065506 
	C1061.505493,163.524612 1049.260986,166.749710 1035.664795,161.788452 
	C1021.828125,156.739410 1014.747498,145.892700 1013.193604,131.501450 
	C1011.243347,113.439163 1025.802368,95.606499 1042.928345,93.964996 
	C1066.006348,91.752991 1080.212280,108.131981 1081.194946,126.099533 
	C1081.747559,136.204895 1079.000610,145.135712 1072.081299,153.065506 
M1032.541870,137.587463 
	C1037.802490,146.267181 1045.488281,149.095993 1053.993286,145.482880 
	C1061.801392,142.165817 1065.989990,132.643982 1063.586548,123.675362 
	C1061.303345,115.155853 1053.946655,110.038948 1045.263062,110.930481 
	C1033.628906,112.124947 1027.500122,124.268402 1032.541870,137.587463 
z"/>
<path fill="#FAFAFA" opacity="1.000000" stroke="none" 
	d="
M1107.894043,161.257568 
	C1093.049561,154.107697 1086.332886,142.285675 1087.181763,126.510590 
	C1087.976807,111.738197 1095.375977,100.974312 1109.463989,95.810951 
	C1125.958984,89.765381 1147.441528,96.341339 1153.859741,118.632988 
	C1159.850464,139.440002 1146.740356,160.498611 1125.321411,163.413620 
	C1119.824951,164.161667 1113.952637,162.148712 1107.894043,161.257568 
M1134.263184,117.361359 
	C1128.824463,111.179329 1122.325073,109.329117 1115.068726,111.897079 
	C1108.609619,114.182907 1104.339722,120.563042 1104.133789,128.236603 
	C1103.926880,135.943008 1108.489136,143.304581 1115.016602,145.797394 
	C1121.826660,148.398102 1129.321655,146.420532 1133.901855,140.814514 
	C1139.005249,134.568176 1139.315430,126.137276 1134.263184,117.361359 
z"/>
<path fill="#FAFAFA" opacity="1.000000" stroke="none" 
	d="
M1245.341187,155.706833 
	C1237.930664,148.894272 1234.411987,140.863235 1234.866821,131.041687 
	C1235.134644,125.256821 1234.915649,119.449417 1234.915649,113.270508 
	C1232.142944,113.270508 1229.717163,113.270508 1226.958008,113.270508 
	C1226.958008,107.519241 1226.958008,102.151901 1226.958008,96.472679 
	C1229.512451,96.336609 1231.952637,96.206627 1234.865479,96.051468 
	C1234.865479,87.406143 1234.865479,78.823601 1234.865479,70.019836 
	C1240.599243,70.019836 1245.858521,70.019836 1251.615234,70.019836 
	C1251.615234,78.667847 1251.615234,87.236206 1251.615234,96.254356 
	C1260.338379,96.254356 1268.579224,96.254356 1277.074951,96.254356 
	C1277.074951,101.980293 1277.074951,107.245857 1277.074951,112.963463 
	C1268.838257,112.963463 1260.606934,112.963463 1252.094116,112.963463 
	C1252.094116,120.973557 1251.567993,128.592499 1252.265503,136.097717 
	C1252.795166,141.797028 1258.219360,145.443268 1264.521973,145.760941 
	C1266.681396,145.869797 1268.850342,145.787521 1271.015015,145.789825 
	C1272.977051,145.791901 1274.939087,145.790268 1277.110596,145.790268 
	C1277.110596,151.591812 1277.110596,157.002075 1277.110596,162.598495 
	C1265.819214,163.277039 1254.892090,163.595596 1245.341187,155.706833 
z"/>
<path fill="#FAFAFA" opacity="1.000000" stroke="none" 
	d="
M777.127686,140.754272 
	C780.208740,143.837250 783.048828,146.642532 785.867554,149.426651 
	C777.496704,161.518707 762.237976,166.800262 748.333801,162.521881 
	C734.078186,158.135361 723.989075,144.553711 724.129272,129.938522 
	C724.284363,113.770599 734.656982,99.170692 748.990662,94.944878 
	C762.967041,90.824394 777.300476,96.331253 785.913696,109.239433 
	C781.929932,113.108086 777.919617,117.002602 774.631287,120.195953 
	C770.542786,117.246780 766.735229,113.618416 762.211792,111.574173 
	C759.576416,110.383209 755.598755,111.107101 752.568115,112.060188 
	C745.751953,114.203804 741.019226,122.462967 741.365417,130.422638 
	C741.703674,138.202530 746.466614,144.120377 754.187805,146.354263 
	C761.501892,148.470383 768.210449,145.431000 773.612183,137.422119 
	C774.720825,138.456223 775.803772,139.466415 777.127686,140.754272 
z"/>
<path fill="#FCFCFC" opacity="1.000000" stroke="none" 
	d="
M902.051514,153.938828 
	C902.051514,125.708748 902.051514,97.970924 902.051514,70.013542 
	C907.777649,70.013542 913.056030,70.013542 918.698730,70.013542 
	C918.698730,100.728256 918.698730,131.542831 918.698730,162.601379 
	C913.365234,162.601379 908.102356,162.601379 902.051514,162.601379 
	C902.051514,159.918518 902.051514,157.174805 902.051514,153.938828 
z"/>
<path fill="#F9F9F9" opacity="1.000000" stroke="none" 
	d="
M524.386475,162.481201 
	C524.003967,140.420670 524.003967,118.649963 524.003967,96.375511 
	C529.883118,95.239006 530.052185,101.404541 532.437866,102.958687 
	C538.500061,100.717552 543.956360,97.838737 549.742554,96.803604 
	C555.529907,95.768265 561.646973,96.576309 568.004150,96.576309 
	C568.004150,101.850609 568.004150,107.235924 568.004150,113.131775 
	C564.264832,113.131775 560.486938,113.126434 556.708984,113.132774 
	C545.101868,113.152229 540.630554,117.556236 540.619995,129.002029 
	C540.609741,140.112610 540.617737,151.223175 540.617737,162.771027 
	C534.975769,162.771027 529.872375,162.771027 524.386475,162.481201 
z"/>
<path fill="#F2F2F2" opacity="1.000000" stroke="none" 
	d="
M811.686218,103.148148 
	C811.686218,123.215729 811.686218,142.801270 811.686218,162.627136 
	C805.726318,162.627136 800.320923,162.627136 794.597534,162.627136 
	C794.597534,140.583054 794.597534,118.716949 794.597534,96.502472 
	C800.099426,96.502472 805.503540,96.502472 811.686218,96.502472 
	C811.686218,98.483803 811.686218,100.574951 811.686218,103.148148 
z"/>
<path fill="#F8F8F8" opacity="1.000000" stroke="none" 
	d="
M814.261414,78.856598 
	C812.854736,86.506432 808.163452,90.082573 801.251282,89.170181 
	C795.218811,88.373917 791.528442,83.661400 791.875916,77.198212 
	C792.181824,71.509689 796.838135,67.080383 802.664673,66.935516 
	C809.456299,66.766670 813.523010,70.786812 814.261414,78.856598 
z"/>
<path fill="#050505" opacity="1.000000" stroke="none" 
	d="
M951.762085,133.066925 
	C951.762085,130.937485 951.762085,129.295517 951.762085,127.190041 
	C961.269104,127.190041 970.530212,126.922211 979.764709,127.301895 
	C984.453247,127.494667 987.346436,131.577087 987.226929,136.285172 
	C987.105164,141.079071 983.793762,144.487778 978.763672,144.970734 
	C978.104675,145.033997 977.435608,144.997284 976.771179,144.997391 
	C968.652039,144.998718 960.532837,144.998260 951.762085,144.998260 
	C951.762085,141.039459 951.762085,137.296936 951.762085,133.066925 
z"/>
<path fill="#020202" opacity="1.000000" stroke="none" 
	d="
M987.133301,101.689911 
	C986.232727,106.719917 983.223694,109.056999 978.750183,109.145935 
	C969.959167,109.320724 961.162292,109.197365 952.064697,109.197365 
	C952.064697,103.311966 952.064697,97.745407 952.064697,91.730370 
	C961.329529,91.730370 970.585938,91.439209 979.811523,91.846146 
	C984.859070,92.068794 986.915161,95.303772 987.133301,101.689911 
z"/>
<path fill="#040404" opacity="1.000000" stroke="none" 
	d="
M487.552429,115.398636 
	C494.996185,124.053764 495.326080,134.008453 488.581543,141.214371 
	C484.342560,145.743362 479.258148,148.009644 472.940277,146.572311 
	C466.330444,145.068527 462.260559,141.044876 460.504517,134.467255 
	C458.402405,126.593445 460.904266,117.889282 466.655457,113.835564 
	C472.931763,109.411659 480.287628,109.878632 487.552429,115.398636 
z"/>
<path fill="#050505" opacity="1.000000" stroke="none" 
	d="
M865.625793,142.699951 
	C857.891052,148.089249 850.822754,148.317398 844.715759,143.615509 
	C838.611145,138.915359 836.484131,129.931854 839.452820,121.386101 
	C841.785645,114.670364 847.819397,110.638130 855.268188,110.817009 
	C867.929810,111.121048 876.021973,126.346268 869.503052,137.712189 
	C868.523621,139.419830 867.108337,140.877457 865.625793,142.699951 
z"/>
<path fill="#040404" opacity="1.000000" stroke="none" 
	d="
M672.000305,140.924835 
	C663.269897,128.453400 669.219971,112.132332 682.619934,110.922485 
	C691.126709,110.154434 697.786011,114.571304 700.553589,122.817085 
	C703.242554,130.829178 700.140991,140.135635 693.372681,144.363510 
	C686.268188,148.801392 678.997925,147.726593 672.000305,140.924835 
z"/>
<path fill="#0A0A0A" opacity="1.000000" stroke="none" 
	d="
M408.316681,110.892487 
	C410.497192,110.941154 412.250244,111.024277 415.130768,111.160858 
	C408.213745,120.335266 401.893616,128.718002 395.458038,137.253876 
	C389.967163,125.452423 395.571075,113.906044 408.316681,110.892487 
z"/>
<path fill="#040404" opacity="1.000000" stroke="none" 
	d="
M1032.353516,137.234650 
	C1027.500122,124.268402 1033.628906,112.124947 1045.263062,110.930481 
	C1053.946655,110.038948 1061.303345,115.155853 1063.586548,123.675362 
	C1065.989990,132.643982 1061.801392,142.165817 1053.993286,145.482880 
	C1045.488281,149.095993 1037.802490,146.267181 1032.353516,137.234650 
z"/>
<path fill="#050505" opacity="1.000000" stroke="none" 
	d="
M1134.503540,117.644577 
	C1139.315430,126.137276 1139.005249,134.568176 1133.901855,140.814514 
	C1129.321655,146.420532 1121.826660,148.398102 1115.016602,145.797394 
	C1108.489136,143.304581 1103.926880,135.943008 1104.133789,128.236603 
	C1104.339722,120.563042 1108.609619,114.182907 1115.068726,111.897079 
	C1122.325073,109.329117 1128.824463,111.179329 1134.503540,117.644577 
z"/>
</svg>